<svg width="25.000000" height="25.000000" viewBox="0 0 25 25" fill="none" xmlns="http://www.w3.org/2000/svg" xmlns:xlink="http://www.w3.org/1999/xlink">
	<desc>
			Created with Pixso.
	</desc>
	<defs>
		<clipPath id="clip3587_90">
			<rect width="25.000000" height="25.000000" fill="white" fill-opacity="0"/>
		</clipPath>
	</defs>
	<rect width="25.000000" height="25.000000" fill="#FFFFFF" fill-opacity="0"/>
	<g clip-path="url(#clip3587_90)">
		<path d="M17.1875 10.4169L7.8125 10.4169" stroke="#5051F9" stroke-opacity="1.000000" stroke-width="1.000000"/>
		<path d="M7.8125 18.2294L17.1875 18.2294" stroke="#5051F9" stroke-opacity="1.000000" stroke-width="1.000000"/>
		<path d="M17.9238 18.5344C18.1191 18.7298 18.2305 18.9948 18.2305 19.271L18.2305 22.9168C18.2305 23.3312 18.0645 23.7287 17.7715 24.0217C17.4785 24.3147 17.082 24.4793 16.668 24.4793L8.33398 24.4793C7.91992 24.4793 7.52148 24.3147 7.22852 24.0217C6.93555 23.7287 6.77148 23.3312 6.77148 22.9168L6.77148 19.271C6.77148 18.9948 6.88086 18.7298 7.07617 18.5344C7.27148 18.3391 7.53711 18.2293 7.8125 18.2293L7.8125 10.4168C7.53711 10.4168 7.27148 10.3071 7.07617 10.1118C6.88086 9.91638 6.77148 9.65143 6.77148 9.37518L6.77148 7.29184C6.77148 6.46304 7.10156 5.66818 7.6875 5.08212C8.27344 4.49609 9.06836 4.16684 9.89648 4.16684L15.1055 4.16684C15.9336 4.16684 16.7285 4.49609 17.3145 5.08212C17.9004 5.66818 18.2305 6.46304 18.2305 7.29184L18.2305 9.37518C18.2305 9.65143 18.1191 9.91638 17.9238 10.1118C17.7285 10.3071 17.4648 10.4168 17.1875 10.4168L17.1875 18.2293C17.4648 18.2293 17.7285 18.3391 17.9238 18.5344Z" stroke="#5051F9" stroke-opacity="1.000000" stroke-width="1.000000"/>
		<path d="M15.1055 4.1669L15.1055 1.56271C15.1055 1.28647 14.9941 1.02151 14.7988 0.826141C14.6035 0.630798 14.3398 0.521057 14.0625 0.521057L10.9375 0.521057C10.6621 0.521057 10.3965 0.630798 10.2012 0.826141C10.0059 1.02151 9.89648 1.28647 9.89648 1.56271L9.89648 4.1669" stroke="#5051F9" stroke-opacity="1.000000" stroke-width="1.000000"/>
	</g>
</svg>
