<svg width="22.212891" height="22.604736" viewBox="0 0 22.2129 22.6047" fill="none" xmlns="http://www.w3.org/2000/svg" xmlns:xlink="http://www.w3.org/1999/xlink">
	<desc>
			Created with Pixso.
	</desc>
	<defs/>
	<path d="M0.5 11.0808C0.5 13.0626 1.0332 15.0078 2.04688 16.7116C3.05859 18.4154 4.51172 19.8149 6.25195 20.7627L6.25195 22.1047L15.8379 22.1047L15.8379 20.7627C17.5781 19.8149 19.0312 18.4154 20.043 16.7116C21.0547 15.0078 21.5898 13.0626 21.5898 11.0808L21.5898 10.6015L0.5 10.6015L0.5 11.0808Z" stroke="#5051F9" stroke-opacity="1.000000" stroke-width="1.000000"/>
	<path d="M18.4316 6.22787L21.8105 1.62656" stroke="#5051F9" stroke-opacity="1.000000" stroke-width="1.000000"/>
	<path d="M17.2031 5.38907L18.3359 0.104767" stroke="#5051F9" stroke-opacity="1.000000" stroke-width="1.000000"/>
	<path d="M2.05859 10.6015C1.79102 9.30591 1.96094 7.95859 2.54102 6.76965C3.12109 5.58069 4.07812 4.61694 5.26172 4.02872C6.44727 3.44046 7.79297 3.2608 9.08984 3.5177C10.3887 3.77463 11.5645 4.4537 12.4355 5.44901" stroke="#5051F9" stroke-opacity="1.000000" stroke-width="1.000000"/>
	<path d="M4.0332 10.6015C3.76172 9.71909 3.79883 8.77051 4.13672 7.91122C4.47461 7.05194 5.09375 6.33292 5.89453 5.87198C6.69336 5.41104 7.62695 5.2355 8.53906 5.37421C9.45312 5.51288 10.291 5.95752 10.918 6.63525" stroke="#5051F9" stroke-opacity="1.000000" stroke-width="1.000000"/>
	<path d="M6.13672 10.6015C5.9707 10.3557 5.85742 10.0782 5.80273 9.78656C5.75 9.49484 5.75586 9.19516 5.82422 8.90619C5.89062 8.61722 6.01562 8.34521 6.19336 8.10715C6.37109 7.86905 6.59375 7.67007 6.85156 7.52258C7.10938 7.37509 7.39453 7.28226 7.68945 7.24994C7.98438 7.21762 8.2832 7.24646 8.56641 7.33469C8.84961 7.42291 9.11133 7.5686 9.33594 7.76266C9.56055 7.95676 9.74219 8.19501 9.86914 8.46259" stroke="#5051F9" stroke-opacity="1.000000" stroke-width="1.000000"/>
	<path d="M16.2266 10.6015C16.3047 10.3842 16.332 10.1512 16.3008 9.92194C16.2715 9.69269 16.1855 9.47412 16.0527 9.2847C15.9199 9.09531 15.7441 8.94064 15.5391 8.83386C15.334 8.72711 15.1074 8.67136 14.875 8.67136C14.6445 8.67136 14.416 8.72711 14.2109 8.83386C14.0059 8.94064 13.8301 9.09531 13.6973 9.2847C13.5645 9.47412 13.4805 9.69269 13.4492 9.92194C13.4199 10.1512 13.4453 10.3842 13.5234 10.6015" stroke="#5051F9" stroke-opacity="1.000000" stroke-width="1.000000"/>
	<path d="M18.1992 10.6015C18.2715 10.1234 18.2422 9.6351 18.1094 9.17001C17.9766 8.70493 17.7441 8.27408 17.4297 7.90698C17.1133 7.53989 16.7227 7.24527 16.2832 7.04324C15.8438 6.84125 15.3652 6.73666 14.8828 6.73666C14.3984 6.73666 13.9199 6.84125 13.4805 7.04324C13.041 7.24527 12.6504 7.53989 12.3359 7.90698C12.0215 8.27408 11.7891 8.70493 11.6562 9.17001C11.5234 9.6351 11.4922 10.1234 11.5664 10.6015" stroke="#5051F9" stroke-opacity="1.000000" stroke-width="1.000000"/>
	<path d="M20.1289 10.6015C20.1406 10.4457 20.1523 10.2839 20.1523 10.1222C20.1523 8.72385 19.5957 7.38281 18.6074 6.39404C17.6191 5.4053 16.2773 4.84982 14.8789 4.84982C13.4824 4.84982 12.1406 5.4053 11.1523 6.39404C10.1621 7.38281 9.60742 8.72385 9.60742 10.1222C9.60742 10.2839 9.61914 10.4457 9.63086 10.6015" stroke="#5051F9" stroke-opacity="1.000000" stroke-width="1.000000"/>
</svg>
