<svg width="22.875000" height="22.874481" viewBox="0 0 22.875 22.8745" fill="none" xmlns="http://www.w3.org/2000/svg" xmlns:xlink="http://www.w3.org/1999/xlink">
	<desc>
			Created with Pixso.
	</desc>
	<defs/>
	<path id="Vector" d="M12.5684 19.8604L3.01367 10.3062C2.73828 10.0302 2.36328 9.875 1.97266 9.875C1.16016 9.875 0.5 10.5344 0.5 11.3479C0.5 11.7386 0.654297 12.1136 0.931641 12.3896L10.4844 21.9432C10.7617 22.2193 11.1367 22.3745 11.5273 22.3745C12.3398 22.375 13 21.7156 13 20.9021C13 20.5114 12.8457 20.1365 12.5684 19.8604Z" stroke="#5051F9" stroke-opacity="1.000000" stroke-width="1.000000"/>
	<path id="Vector" d="M3.01367 14.4729C2.73828 14.1969 2.36328 14.0417 1.97266 14.0417C1.16016 14.0417 0.5 14.701 0.5 15.5146C0.5 15.9052 0.654297 16.2802 0.931641 16.5562L6.31836 21.9432C6.59375 22.2193 6.96875 22.3745 7.35938 22.3745C8.17383 22.375 8.83398 21.7156 8.83398 20.9021C8.83398 20.5114 8.67773 20.1364 8.40234 19.8604" stroke="#5051F9" stroke-opacity="1.000000" stroke-width="1.000000"/>
	<path id="Vector" d="M2.58398 18.2083L1.02148 19.7708L3.10547 21.8542L4.66797 20.2917" stroke="#5051F9" stroke-opacity="1.000000" stroke-width="1.000000"/>
	<path id="Vector" d="M10.3066 3.01459L19.8594 12.5682C20.1367 12.8443 20.5117 12.9995 20.9023 12.9995C21.7148 13 22.375 12.3406 22.375 11.5271C22.375 11.1364 22.2207 10.7615 21.9434 10.4854L12.3887 0.931244C12.1133 0.655212 11.7383 0.5 11.3477 0.5C10.5352 0.5 9.875 1.15936 9.875 1.97293C9.875 2.36356 10.0293 2.73856 10.3066 3.01459Z" stroke="#5051F9" stroke-opacity="1.000000" stroke-width="1.000000"/>
	<path id="Vector" d="M19.8594 8.4021C20.1367 8.67813 20.5117 8.83334 20.9023 8.83334C21.7148 8.83334 22.375 8.17395 22.375 7.36041C22.375 6.96979 22.2188 6.59479 21.9434 6.31876L16.5547 0.931244C16.2793 0.655212 15.9043 0.5 15.5137 0.5C14.7012 0.5 14.041 1.15936 14.041 1.97293C14.041 2.36356 14.1953 2.73856 14.4727 3.01459" stroke="#5051F9" stroke-opacity="1.000000" stroke-width="1.000000"/>
	<path id="Vector" d="M20.293 4.66669L21.8555 3.10419L19.7715 1.02084L18.209 2.58334" stroke="#5051F9" stroke-opacity="1.000000" stroke-width="1.000000"/>
	<path id="Vector" d="M6.75 14.0417L14.041 6.75" stroke="#5051F9" stroke-opacity="1.000000" stroke-width="1.000000"/>
	<path id="Vector" d="M8.83398 16.125L16.125 8.83334" stroke="#5051F9" stroke-opacity="1.000000" stroke-width="1.000000"/>
</svg>
