<svg width="61.251953" height="45.655884" viewBox="0 0 61.252 45.6559" fill="none" xmlns="http://www.w3.org/2000/svg" xmlns:xlink="http://www.w3.org/1999/xlink">
	<desc>
			Created with Pixso.
	</desc>
	<defs/>
	<path id="polyline" d="M9.13867 7.8194L2.59961 14.0513L0.263672 22.954L4.46875 32.7469L13.8945 32.9466L25.4902 33.1921L30.6289 34.9727L38.1035 42.0948L46.0449 37.1983L51.1836 37.6434L57.2559 34.0824L60.9941 27.4053L60.0586 19.8381L52.584 7.8194L38.5703 0.252136L25.4902 0.697266L9.13867 7.8194Z" fill="#000000" fill-opacity="0" fill-rule="evenodd"/>
	<path id="polyline" d="M14.2773 34.9727L9.13867 7.8194M25.4902 0.697266L38.5703 0.252136L52.584 7.8194L60.0586 19.8381L60.9941 27.4053L57.2559 34.0824L51.1836 37.6434L46.0449 37.1983L38.1035 42.0948L30.6289 34.9727L25.4902 33.1921L4.46875 32.7469L0.263672 22.954L2.59961 14.0513L9.13867 7.8194L25.4902 0.697266Z" stroke="#9D61FF" stroke-opacity="1.000000" stroke-width="0.500000"/>
	<path id="polyline" d="M25.957 0.697266L60.0586 19.8381L53.5195 33.6372L45.1094 30.0762L35.7676 22.0637L30.1621 14.0513L25.957 0.697266Z" fill="#000000" fill-opacity="0" fill-rule="evenodd"/>
	<path id="polyline" d="M0.263672 22.954L11.0078 18.0575L19.416 9.59998L25.957 0.697266L60.0586 19.8381L53.5195 33.6373L45.1094 30.0762L35.7676 22.0637L30.1621 14.0513L25.957 0.697266" stroke="#9D61FF" stroke-opacity="1.000000" stroke-width="0.500000"/>
	<path id="polyline" d="M35.7656 22.0638L40.4375 8.70972L52.584 7.81946L47.0371 21.0311L35.7656 22.0638Z" fill="#000000" fill-opacity="0" fill-rule="evenodd"/>
	<path id="polyline" d="M60.0566 19.8381L35.7656 22.0638L40.4375 8.70972L52.584 7.81946L46.9766 21.1735" stroke="#9D61FF" stroke-opacity="1.000000" stroke-width="0.500000"/>
	<path id="polyline" d="" fill="#000000" fill-opacity="0" fill-rule="nonzero"/>
	<path id="polyline" d="M38.5684 0.252136L39.9707 9.15485L46.9766 21.1735L57.2539 34.0824" stroke="#9D61FF" stroke-opacity="1.000000" stroke-width="0.500000"/>
	<path id="polyline" d="" fill="#000000" fill-opacity="0" fill-rule="nonzero"/>
	<path id="polyline" d="M45.1094 30.0762L46.9785 21.1735L60.9922 27.4053" stroke="#9D61FF" stroke-opacity="1.000000" stroke-width="0.500000"/>
	<path id="polyline" d="" fill="#000000" fill-opacity="0" fill-rule="nonzero"/>
	<path id="polyline" d="M9.13867 7.81946L19.416 9.59998L39.9707 8.70972" stroke="#9D61FF" stroke-opacity="1.000000" stroke-width="0.500000"/>
	<path id="polyline" d="" fill="#000000" fill-opacity="0" fill-rule="nonzero"/>
	<path id="polyline" d="M18.9492 9.59998L30.1602 14.0513L39.9707 8.26459" stroke="#9D61FF" stroke-opacity="1.000000" stroke-width="0.500000"/>
	<path id="polyline" d="" fill="#000000" fill-opacity="0" fill-rule="nonzero"/>
	<path id="polyline" d="M18.9492 9.59998L23.6211 17.6124L30.1602 14.0513" stroke="#9D61FF" stroke-opacity="1.000000" stroke-width="0.500000"/>
	<path id="polyline" d="" fill="#000000" fill-opacity="0" fill-rule="nonzero"/>
	<path id="polyline" d="M23.6211 17.6124L18.0156 26.0699L11.0078 18.0575" stroke="#9D61FF" stroke-opacity="1.000000" stroke-width="0.500000"/>
	<path id="polyline" d="" fill="#000000" fill-opacity="0" fill-rule="nonzero"/>
	<path id="polyline" d="M35.7656 22.0637L21.75 36.7532L18.0137 26.0699" stroke="#9D61FF" stroke-opacity="1.000000" stroke-width="0.500000"/>
	<path id="polyline" d="" fill="#000000" fill-opacity="0" fill-rule="nonzero"/>
	<path id="polyline" d="M23.6191 17.6124L31.0938 26.9602L18.0137 26.0699" stroke="#9D61FF" stroke-opacity="1.000000" stroke-width="0.500000"/>
	<path id="polyline" d="" fill="#000000" fill-opacity="0" fill-rule="nonzero"/>
	<path id="polyline" d="M31.0938 26.9602L36.6992 34.9727L43.707 39.8691" stroke="#9D61FF" stroke-opacity="1.000000" stroke-width="0.500000"/>
	<path id="polyline" d="" fill="#000000" fill-opacity="0" fill-rule="nonzero"/>
	<path id="polyline" d="M38.1035 42.0948L36.7012 34.9727L45.1094 30.0762" stroke="#9D61FF" stroke-opacity="1.000000" stroke-width="0.500000"/>
	<line id="line" x1="35.763672" y1="22.063721" x2="36.697266" y2="34.972595" stroke="#9D61FF" stroke-opacity="1.000000" stroke-width="0.500000"/>
	<path id="polyline" d="" fill="#000000" fill-opacity="0" fill-rule="nonzero"/>
	<path id="polyline" d="M46.043 37.1983L45.1094 30.0762L60.9922 27.4053" stroke="#9D61FF" stroke-opacity="1.000000" stroke-width="0.500000"/>
	<line id="line" x1="45.109375" y1="30.076172" x2="51.183594" y2="37.643494" stroke="#9D61FF" stroke-opacity="1.000000" stroke-width="0.500000"/>
	<path id="polyline" d="" fill="#000000" fill-opacity="0" fill-rule="nonzero"/>
	<path id="polyline" d="M31.0938 26.9602L30.627 34.9727L36.6992 34.9727" stroke="#9D61FF" stroke-opacity="1.000000" stroke-width="0.500000"/>
	<line id="line" x1="21.750000" y1="36.753235" x2="0.261719" y2="22.954041" stroke="#9D61FF" stroke-opacity="1.000000" stroke-width="0.500000"/>
	<path id="polyline" d="" fill="#000000" fill-opacity="0" fill-rule="nonzero"/>
	<path id="polyline" d="M4.4668 32.747L11.0059 18.0576L2.59766 14.0513" stroke="#9D61FF" stroke-opacity="1.000000" stroke-width="0.500000"/>
	<path id="polyline" d="" fill="#000000" fill-opacity="0" fill-rule="nonzero"/>
	<path id="polyline" d="M43.707 39.8691L46.5098 44.3205L38.1016 42.0948" stroke="#9D61FF" stroke-opacity="1.000000" stroke-width="0.500000"/>
</svg>
